<mxfile host="app.diagrams.net" modified="2021-03-06T03:50:34.592Z" agent="5.0 (Windows NT 10.0; Win64; x64) AppleWebKit/537.36 (KHTML, like Gecko) Chrome/88.0.4324.182 Safari/537.36 Edg/88.0.705.81" etag="1PP2MuPCRKJhYk0peXXy" version="14.4.4" type="github">
  <diagram id="Cin4LmTbzPWeP2xjX7Cx" name="Page-1">
    <mxGraphModel dx="868" dy="460" grid="1" gridSize="10" guides="1" tooltips="1" connect="1" arrows="1" fold="1" page="1" pageScale="1" pageWidth="827" pageHeight="1169" math="0" shadow="0">
      <root>
        <mxCell id="0" />
        <mxCell id="1" parent="0" />
        <mxCell id="rJ6WnB4jMZfpZyY2WUPX-1" value="" style="rounded=0;whiteSpace=wrap;html=1;fillColor=#ffe6cc;strokeColor=#d79b00;" parent="1" vertex="1">
          <mxGeometry x="220" y="470" width="210" height="200" as="geometry" />
        </mxCell>
        <mxCell id="rJ6WnB4jMZfpZyY2WUPX-2" value="main线程&lt;br&gt;java虚拟机栈" style="text;html=1;strokeColor=none;fillColor=none;align=center;verticalAlign=middle;whiteSpace=wrap;rounded=0;" parent="1" vertex="1">
          <mxGeometry x="270" y="480" width="110" height="30" as="geometry" />
        </mxCell>
        <mxCell id="rJ6WnB4jMZfpZyY2WUPX-14" value="" style="group" parent="1" vertex="1" connectable="0">
          <mxGeometry x="265" y="520" width="115" height="55" as="geometry" />
        </mxCell>
        <mxCell id="rJ6WnB4jMZfpZyY2WUPX-4" value="" style="rounded=0;whiteSpace=wrap;html=1;fillColor=#d5e8d4;strokeColor=#82b366;" parent="rJ6WnB4jMZfpZyY2WUPX-14" vertex="1">
          <mxGeometry width="115" height="55" as="geometry" />
        </mxCell>
        <mxCell id="rJ6WnB4jMZfpZyY2WUPX-7" value="方法1栈帧" style="text;html=1;strokeColor=none;fillColor=none;align=center;verticalAlign=middle;whiteSpace=wrap;rounded=0;" parent="rJ6WnB4jMZfpZyY2WUPX-14" vertex="1">
          <mxGeometry x="21.5" width="72" height="20" as="geometry" />
        </mxCell>
        <mxCell id="rJ6WnB4jMZfpZyY2WUPX-8" value="局部变量：person" style="text;html=1;strokeColor=none;fillColor=none;align=center;verticalAlign=middle;whiteSpace=wrap;rounded=0;" parent="rJ6WnB4jMZfpZyY2WUPX-14" vertex="1">
          <mxGeometry y="27" width="110" height="15" as="geometry" />
        </mxCell>
        <mxCell id="rJ6WnB4jMZfpZyY2WUPX-15" value="" style="group" parent="1" vertex="1" connectable="0">
          <mxGeometry x="265" y="585" width="115" height="55" as="geometry" />
        </mxCell>
        <mxCell id="rJ6WnB4jMZfpZyY2WUPX-16" value="" style="rounded=0;whiteSpace=wrap;html=1;fillColor=#d5e8d4;strokeColor=#82b366;" parent="rJ6WnB4jMZfpZyY2WUPX-15" vertex="1">
          <mxGeometry width="115" height="55" as="geometry" />
        </mxCell>
        <mxCell id="rJ6WnB4jMZfpZyY2WUPX-17" value="main方法" style="text;html=1;strokeColor=none;fillColor=none;align=center;verticalAlign=middle;whiteSpace=wrap;rounded=0;" parent="rJ6WnB4jMZfpZyY2WUPX-15" vertex="1">
          <mxGeometry x="21.5" width="72" height="20" as="geometry" />
        </mxCell>
        <mxCell id="rJ6WnB4jMZfpZyY2WUPX-18" value="局部变量：age" style="text;html=1;strokeColor=none;fillColor=none;align=center;verticalAlign=middle;whiteSpace=wrap;rounded=0;" parent="rJ6WnB4jMZfpZyY2WUPX-15" vertex="1">
          <mxGeometry y="27" width="110" height="15" as="geometry" />
        </mxCell>
        <mxCell id="rJ6WnB4jMZfpZyY2WUPX-20" value="" style="rounded=0;whiteSpace=wrap;html=1;fillColor=#e1d5e7;strokeColor=#9673a6;" parent="1" vertex="1">
          <mxGeometry x="520" y="490" width="150" height="140" as="geometry" />
        </mxCell>
        <mxCell id="rJ6WnB4jMZfpZyY2WUPX-21" value="堆内存" style="text;html=1;strokeColor=none;fillColor=none;align=center;verticalAlign=middle;whiteSpace=wrap;rounded=0;" parent="1" vertex="1">
          <mxGeometry x="575" y="500" width="40" height="20" as="geometry" />
        </mxCell>
        <mxCell id="rJ6WnB4jMZfpZyY2WUPX-22" value="实例&lt;br&gt;&lt;br&gt;new Persion()" style="rounded=0;whiteSpace=wrap;html=1;fillColor=#f8cecc;strokeColor=#b85450;" parent="1" vertex="1">
          <mxGeometry x="535" y="540" width="120" height="60" as="geometry" />
        </mxCell>
        <mxCell id="rJ6WnB4jMZfpZyY2WUPX-24" style="edgeStyle=orthogonalEdgeStyle;rounded=0;orthogonalLoop=1;jettySize=auto;html=1;" parent="1" source="rJ6WnB4jMZfpZyY2WUPX-8" target="rJ6WnB4jMZfpZyY2WUPX-22" edge="1">
          <mxGeometry relative="1" as="geometry" />
        </mxCell>
        <mxCell id="rJ6WnB4jMZfpZyY2WUPX-25" value="" style="rounded=0;whiteSpace=wrap;html=1;fillColor=#ffe6cc;strokeColor=#d79b00;" parent="1" vertex="1">
          <mxGeometry x="220" y="800" width="210" height="200" as="geometry" />
        </mxCell>
        <mxCell id="rJ6WnB4jMZfpZyY2WUPX-26" value="main线程&lt;br&gt;java虚拟机栈" style="text;html=1;strokeColor=none;fillColor=none;align=center;verticalAlign=middle;whiteSpace=wrap;rounded=0;" parent="1" vertex="1">
          <mxGeometry x="270" y="810" width="110" height="30" as="geometry" />
        </mxCell>
        <mxCell id="rJ6WnB4jMZfpZyY2WUPX-27" value="" style="group" parent="1" vertex="1" connectable="0">
          <mxGeometry x="265" y="850" width="115" height="55" as="geometry" />
        </mxCell>
        <mxCell id="rJ6WnB4jMZfpZyY2WUPX-28" value="" style="rounded=0;whiteSpace=wrap;html=1;fillColor=#d5e8d4;strokeColor=#82b366;" parent="rJ6WnB4jMZfpZyY2WUPX-27" vertex="1">
          <mxGeometry width="115" height="55" as="geometry" />
        </mxCell>
        <mxCell id="rJ6WnB4jMZfpZyY2WUPX-29" value="方法1栈帧" style="text;html=1;strokeColor=none;fillColor=none;align=center;verticalAlign=middle;whiteSpace=wrap;rounded=0;" parent="rJ6WnB4jMZfpZyY2WUPX-27" vertex="1">
          <mxGeometry x="21.5" width="72" height="20" as="geometry" />
        </mxCell>
        <mxCell id="rJ6WnB4jMZfpZyY2WUPX-30" value="局部变量：person" style="text;html=1;strokeColor=none;fillColor=none;align=center;verticalAlign=middle;whiteSpace=wrap;rounded=0;" parent="rJ6WnB4jMZfpZyY2WUPX-27" vertex="1">
          <mxGeometry y="27" width="110" height="15" as="geometry" />
        </mxCell>
        <mxCell id="rJ6WnB4jMZfpZyY2WUPX-31" value="" style="group" parent="1" vertex="1" connectable="0">
          <mxGeometry x="265" y="915" width="115" height="55" as="geometry" />
        </mxCell>
        <mxCell id="rJ6WnB4jMZfpZyY2WUPX-32" value="" style="rounded=0;whiteSpace=wrap;html=1;fillColor=#d5e8d4;strokeColor=#82b366;" parent="rJ6WnB4jMZfpZyY2WUPX-31" vertex="1">
          <mxGeometry width="115" height="55" as="geometry" />
        </mxCell>
        <mxCell id="rJ6WnB4jMZfpZyY2WUPX-33" value="main方法" style="text;html=1;strokeColor=none;fillColor=none;align=center;verticalAlign=middle;whiteSpace=wrap;rounded=0;" parent="rJ6WnB4jMZfpZyY2WUPX-31" vertex="1">
          <mxGeometry x="21.5" width="72" height="20" as="geometry" />
        </mxCell>
        <mxCell id="rJ6WnB4jMZfpZyY2WUPX-34" value="局部变量：age" style="text;html=1;strokeColor=none;fillColor=none;align=center;verticalAlign=middle;whiteSpace=wrap;rounded=0;" parent="rJ6WnB4jMZfpZyY2WUPX-31" vertex="1">
          <mxGeometry y="27" width="110" height="15" as="geometry" />
        </mxCell>
        <mxCell id="rJ6WnB4jMZfpZyY2WUPX-35" value="" style="rounded=0;whiteSpace=wrap;html=1;fillColor=#e1d5e7;strokeColor=#9673a6;" parent="1" vertex="1">
          <mxGeometry x="520" y="820" width="150" height="140" as="geometry" />
        </mxCell>
        <mxCell id="rJ6WnB4jMZfpZyY2WUPX-36" value="堆内存" style="text;html=1;strokeColor=none;fillColor=none;align=center;verticalAlign=middle;whiteSpace=wrap;rounded=0;" parent="1" vertex="1">
          <mxGeometry x="575" y="830" width="40" height="20" as="geometry" />
        </mxCell>
        <mxCell id="rJ6WnB4jMZfpZyY2WUPX-37" value="实例&lt;br&gt;&lt;br&gt;new Persion()" style="rounded=0;whiteSpace=wrap;html=1;fillColor=#f8cecc;strokeColor=#b85450;" parent="1" vertex="1">
          <mxGeometry x="535" y="870" width="120" height="60" as="geometry" />
        </mxCell>
        <mxCell id="rJ6WnB4jMZfpZyY2WUPX-40" value="" style="html=1;shadow=0;dashed=0;align=center;verticalAlign=middle;shape=mxgraph.arrows2.arrow;dy=0.6;dx=40;direction=south;notch=0;fillColor=#1ba1e2;strokeColor=#006EAF;fontColor=#ffffff;" parent="1" vertex="1">
          <mxGeometry x="440" y="690" width="70" height="100" as="geometry" />
        </mxCell>
        <mxCell id="v2iGeY0vWUhogRHJJpxM-3" style="edgeStyle=orthogonalEdgeStyle;rounded=0;orthogonalLoop=1;jettySize=auto;html=1;fontColor=#1A1A1A;" edge="1" parent="1" source="rJ6WnB4jMZfpZyY2WUPX-30" target="rJ6WnB4jMZfpZyY2WUPX-37">
          <mxGeometry relative="1" as="geometry" />
        </mxCell>
        <mxCell id="v2iGeY0vWUhogRHJJpxM-9" value="" style="group" vertex="1" connectable="0" parent="1">
          <mxGeometry x="470" y="890" width="22.5" height="20" as="geometry" />
        </mxCell>
        <mxCell id="v2iGeY0vWUhogRHJJpxM-4" value="" style="endArrow=none;html=1;fontColor=#1A1A1A;" edge="1" parent="v2iGeY0vWUhogRHJJpxM-9">
          <mxGeometry width="50" height="50" relative="1" as="geometry">
            <mxPoint y="20" as="sourcePoint" />
            <mxPoint x="22.5" as="targetPoint" />
          </mxGeometry>
        </mxCell>
        <mxCell id="v2iGeY0vWUhogRHJJpxM-8" value="" style="endArrow=none;html=1;fontColor=#1A1A1A;" edge="1" parent="v2iGeY0vWUhogRHJJpxM-9">
          <mxGeometry width="50" height="50" relative="1" as="geometry">
            <mxPoint x="2.5" as="sourcePoint" />
            <mxPoint x="22.5" y="20" as="targetPoint" />
          </mxGeometry>
        </mxCell>
        <mxCell id="v2iGeY0vWUhogRHJJpxM-10" value="" style="html=1;shadow=0;dashed=0;align=center;verticalAlign=middle;shape=mxgraph.arrows2.arrow;dy=0.6;dx=40;direction=south;notch=0;fillColor=#1ba1e2;strokeColor=#006EAF;fontColor=#ffffff;" vertex="1" parent="1">
          <mxGeometry x="430" y="1030" width="70" height="100" as="geometry" />
        </mxCell>
        <mxCell id="v2iGeY0vWUhogRHJJpxM-11" value="" style="rounded=0;whiteSpace=wrap;html=1;fillColor=#ffe6cc;strokeColor=#d79b00;" vertex="1" parent="1">
          <mxGeometry x="220" y="1150" width="210" height="200" as="geometry" />
        </mxCell>
        <mxCell id="v2iGeY0vWUhogRHJJpxM-12" value="main线程&lt;br&gt;java虚拟机栈" style="text;html=1;strokeColor=none;fillColor=none;align=center;verticalAlign=middle;whiteSpace=wrap;rounded=0;" vertex="1" parent="1">
          <mxGeometry x="270" y="1160" width="110" height="30" as="geometry" />
        </mxCell>
        <mxCell id="v2iGeY0vWUhogRHJJpxM-17" value="" style="group" vertex="1" connectable="0" parent="1">
          <mxGeometry x="265" y="1265" width="115" height="55" as="geometry" />
        </mxCell>
        <mxCell id="v2iGeY0vWUhogRHJJpxM-18" value="" style="rounded=0;whiteSpace=wrap;html=1;fillColor=#d5e8d4;strokeColor=#82b366;" vertex="1" parent="v2iGeY0vWUhogRHJJpxM-17">
          <mxGeometry width="115" height="55" as="geometry" />
        </mxCell>
        <mxCell id="v2iGeY0vWUhogRHJJpxM-19" value="main方法" style="text;html=1;strokeColor=none;fillColor=none;align=center;verticalAlign=middle;whiteSpace=wrap;rounded=0;" vertex="1" parent="v2iGeY0vWUhogRHJJpxM-17">
          <mxGeometry x="21.5" width="72" height="20" as="geometry" />
        </mxCell>
        <mxCell id="v2iGeY0vWUhogRHJJpxM-20" value="局部变量：age" style="text;html=1;strokeColor=none;fillColor=none;align=center;verticalAlign=middle;whiteSpace=wrap;rounded=0;" vertex="1" parent="v2iGeY0vWUhogRHJJpxM-17">
          <mxGeometry y="27" width="110" height="15" as="geometry" />
        </mxCell>
        <mxCell id="v2iGeY0vWUhogRHJJpxM-21" value="" style="rounded=0;whiteSpace=wrap;html=1;fillColor=#e1d5e7;strokeColor=#9673a6;" vertex="1" parent="1">
          <mxGeometry x="520" y="1170" width="150" height="140" as="geometry" />
        </mxCell>
        <mxCell id="v2iGeY0vWUhogRHJJpxM-22" value="堆内存" style="text;html=1;strokeColor=none;fillColor=none;align=center;verticalAlign=middle;whiteSpace=wrap;rounded=0;" vertex="1" parent="1">
          <mxGeometry x="575" y="1180" width="40" height="20" as="geometry" />
        </mxCell>
        <mxCell id="v2iGeY0vWUhogRHJJpxM-23" value="实例&lt;br&gt;&lt;br&gt;new Persion()" style="rounded=0;whiteSpace=wrap;html=1;fillColor=#f8cecc;strokeColor=#b85450;" vertex="1" parent="1">
          <mxGeometry x="535" y="1220" width="120" height="60" as="geometry" />
        </mxCell>
      </root>
    </mxGraphModel>
  </diagram>
</mxfile>
